<svg xmlns="http://www.w3.org/2000/svg" xmlns:xlink="http://www.w3.org/1999/xlink" viewBox="0 0 249.25 249.25"><defs><style>.cls-1{fill:none;}.cls-2{isolation:isolate;}.cls-3{clip-path:url(#clip-path);}.cls-4{fill:url(#linear-gradient);}.cls-26,.cls-27,.cls-28,.cls-29,.cls-30,.cls-5{mix-blend-mode:screen;}.cls-6{fill:url(#linear-gradient-2);}.cls-7,.cls-9{fill:#fff;}.cls-8{fill:#ffead5;mix-blend-mode:darken;}.cls-9{opacity:0.25;mix-blend-mode:overlay;}.cls-10,.cls-27,.cls-28,.cls-29{opacity:0.5;}.cls-10{mix-blend-mode:multiply;}.cls-11{fill:url(#radial-gradient);}.cls-12{fill:url(#radial-gradient-2);}.cls-13{fill:url(#radial-gradient-3);}.cls-14{fill:url(#radial-gradient-4);}.cls-15{fill:url(#radial-gradient-5);}.cls-16{fill:url(#radial-gradient-6);}.cls-17{fill:url(#radial-gradient-7);}.cls-18{fill:url(#radial-gradient-8);}.cls-19{fill:url(#radial-gradient-9);}.cls-20{fill:url(#radial-gradient-10);}.cls-21{fill:url(#radial-gradient-11);}.cls-22{fill:url(#radial-gradient-12);}.cls-23{fill:url(#radial-gradient-13);}.cls-24{fill:url(#radial-gradient-14);}.cls-25{fill:url(#radial-gradient-15);}.cls-26{fill:url(#radial-gradient-16);}.cls-27{fill:url(#radial-gradient-17);}.cls-28{fill:url(#radial-gradient-18);}.cls-29{fill:url(#radial-gradient-20);}.cls-30{fill:url(#radial-gradient-21);}</style><clipPath id="clip-path"><rect class="cls-1" x="1.13" y="19.09" width="247.12" height="230.31"/></clipPath><linearGradient id="linear-gradient" x1="125.04" y1="120.11" x2="125.36" y2="250.28" gradientUnits="userSpaceOnUse"><stop offset="0" stop-color="#f07"/><stop offset="0.14" stop-color="#fa0379"/><stop offset="0.31" stop-color="#ec0a80"/><stop offset="0.49" stop-color="#d4178a"/><stop offset="0.67" stop-color="#b32999"/><stop offset="0.87" stop-color="#8840ac"/><stop offset="0.9" stop-color="#8144af"/></linearGradient><linearGradient id="linear-gradient-2" x1="125.39" y1="299.78" x2="125.39" y2="120.5" gradientUnits="userSpaceOnUse"><stop offset="0.1" stop-color="#8144af"/><stop offset="0.16" stop-color="#7a4cb6"/><stop offset="0.25" stop-color="#6562ca"/><stop offset="0.36" stop-color="#4487e9"/><stop offset="0.38" stop-color="#3e8def"/><stop offset="0.55" stop-color="#52e1ee"/><stop offset="0.56" stop-color="#54e1ec"/><stop offset="0.64" stop-color="#88e3c6"/><stop offset="0.72" stop-color="#b3e5a7"/><stop offset="0.8" stop-color="#d4e68f"/><stop offset="0.87" stop-color="#ece77d"/><stop offset="0.94" stop-color="#fae873"/><stop offset="1" stop-color="#ffe86f"/></linearGradient><radialGradient id="radial-gradient" cx="219.32" cy="-80.79" r="381.93" gradientTransform="translate(93.92 -4.94) rotate(26.4)" xlink:href="#linear-gradient"/><radialGradient id="radial-gradient-2" cx="219.32" cy="-80.79" r="381.93" gradientTransform="translate(99.8 -6.32) rotate(26.4)" xlink:href="#linear-gradient"/><radialGradient id="radial-gradient-3" cx="219.32" cy="-80.79" r="381.93" gradientTransform="translate(105.67 -7.7) rotate(26.4)" xlink:href="#linear-gradient"/><radialGradient id="radial-gradient-4" cx="219.32" cy="-80.79" r="381.94" gradientTransform="translate(111.55 -9.08) rotate(26.4)" xlink:href="#linear-gradient"/><radialGradient id="radial-gradient-5" cx="219.32" cy="-80.79" r="381.93" gradientTransform="translate(117.43 -10.46) rotate(26.4)" xlink:href="#linear-gradient"/><radialGradient id="radial-gradient-6" cx="219.32" cy="-80.79" r="381.93" gradientTransform="translate(123.3 -11.84) rotate(26.4)" xlink:href="#linear-gradient"/><radialGradient id="radial-gradient-7" cx="219.32" cy="-80.79" r="381.93" gradientTransform="translate(83.45 -49.57) rotate(26.4)" xlink:href="#linear-gradient"/><radialGradient id="radial-gradient-8" cx="219.32" cy="-80.79" r="381.93" gradientTransform="translate(89.33 -50.95) rotate(26.4)" xlink:href="#linear-gradient"/><radialGradient id="radial-gradient-9" cx="219.32" cy="-80.79" r="381.93" gradientTransform="translate(95.2 -52.33) rotate(26.4)" xlink:href="#linear-gradient"/><radialGradient id="radial-gradient-10" cx="219.32" cy="-80.79" r="381.93" gradientTransform="translate(101.08 -53.71) rotate(26.4)" xlink:href="#linear-gradient"/><radialGradient id="radial-gradient-11" cx="219.32" cy="-80.79" r="381.93" gradientTransform="translate(106.96 -55.09) rotate(26.4)" xlink:href="#linear-gradient"/><radialGradient id="radial-gradient-12" cx="219.32" cy="-80.79" r="381.93" gradientTransform="translate(112.83 -56.46) rotate(26.4)" xlink:href="#linear-gradient"/><radialGradient id="radial-gradient-13" cx="219.32" cy="-80.79" r="381.93" gradientTransform="translate(118.75 -57.65) rotate(26.4)" xlink:href="#linear-gradient"/><radialGradient id="radial-gradient-14" cx="219.32" cy="-80.79" r="381.93" gradientTransform="translate(124.58 -59.22) rotate(26.4)" xlink:href="#linear-gradient"/><radialGradient id="radial-gradient-15" cx="219.32" cy="-80.79" r="381.93" gradientTransform="translate(130.46 -60.6) rotate(26.4)" xlink:href="#linear-gradient"/><radialGradient id="radial-gradient-16" cx="1139.35" cy="-107.42" r="25.92" gradientTransform="matrix(-1, 0.08, -0.08, -1, 1230, -108.41)" gradientUnits="userSpaceOnUse"><stop offset="0.06" stop-color="#000e57"/><stop offset="0.89" stop-color="#0279b1"/></radialGradient><radialGradient id="radial-gradient-17" cx="1833.64" cy="-496.9" r="330.24" gradientTransform="translate(2056.95 845.28) rotate(-135)" xlink:href="#radial-gradient-16"/><radialGradient id="radial-gradient-18" cx="95.64" cy="33.57" r="5.64" gradientUnits="userSpaceOnUse"><stop offset="0.06" stop-color="#ff7f9a"/><stop offset="0.53" stop-color="#ff3b9c"/><stop offset="0.99" stop-color="#d10059"/></radialGradient><radialGradient id="radial-gradient-20" cx="141.53" cy="105.24" r="3.58" xlink:href="#radial-gradient-18"/><radialGradient id="radial-gradient-21" cx="143.47" cy="179.03" r="27.64" xlink:href="#radial-gradient-18"/></defs><title>logo</title><g class="cls-2"><g id="OBJECTS"><g class="cls-3"><path class="cls-4" d="M246.86,243,166,283.16s-3.55,8.49-5.63,9.52-10.55-1.49-10.55-1.49L68.44,331.58,3.73,201.25l81.34-40.39s8.58,2.47,10.55,1.49,5.63-9.52,5.63-9.52l80.9-40.16Z"/><g class="cls-5"><path class="cls-6" d="M241.14,240.19l-77.75,38.6s-3.51,8-5.51,9-10-1.25-10-1.25L69.66,325.33l-60-120.88,78.18-38.82s8.15,2.19,10,1.25,5.51-9,5.51-9l77.75-38.6Z"/></g><path class="cls-7" d="M158.57,289.15c-2,1-7.68-.24-10.56-1L69,327.41,7.56,203.75,87.66,164l.56.15c3.93,1.05,8.12,1.68,9,1.35s3-4.29,4.76-8.2l.23-.51,79.64-39.54,61.4,123.66-78.64,39C163.33,282.71,160.69,288.1,158.57,289.15Zm-88.21,34.1,77.32-38.39.56.16c3.93,1.05,8.12,1.68,9,1.35s3-4.29,4.76-8.2l.23-.52,76.86-38.16L180.42,121.38l-75.86,37.67c-1.25,2.77-3.89,8.17-6,9.22s-7.68-.25-10.56-1L11.72,205.15Z"/><rect class="cls-8" x="37.26" y="187.21" width="45.86" height="134.96" transform="translate(-106.98 53.34) rotate(-26.4)"/><rect class="cls-8" x="131.28" y="141.92" width="40.24" height="134.96" transform="translate(-77.33 89.18) rotate(-26.4)"/><polygon class="cls-9" points="163.39 278.79 157.88 287.76 97.86 166.88 103.37 157.91 163.39 278.79"/><g class="cls-10"><rect class="cls-11" x="22.37" y="192.28" width="70.25" height="10.86" transform="translate(-81.92 46.2) rotate(-26.4)"/><rect class="cls-12" x="28.25" y="207.99" width="70.25" height="3.1" transform="translate(-86.58 50.04) rotate(-26.4)"/><rect class="cls-13" x="34.13" y="219.83" width="70.25" height="3.1" transform="translate(-91.23 53.89) rotate(-26.4)"/><rect class="cls-14" x="40" y="231.66" width="70.25" height="3.1" transform="translate(-95.88 57.74) rotate(-26.4)"/><rect class="cls-15" x="45.88" y="243.5" width="70.25" height="3.1" transform="translate(-100.53 61.59) rotate(-26.4)"/><rect class="cls-16" x="51.75" y="255.33" width="70.25" height="3.1" transform="translate(-105.18 65.44) rotate(-26.4)"/><rect class="cls-17" x="112.26" y="147.65" width="70.25" height="10.86" transform="translate(-52.7 81.51) rotate(-26.4)"/><rect class="cls-18" x="118.13" y="163.37" width="70.25" height="3.1" transform="translate(-57.35 85.36) rotate(-26.4)"/><rect class="cls-19" x="124.01" y="175.2" width="70.25" height="3.1" transform="translate(-62 89.21) rotate(-26.4)"/><rect class="cls-20" x="129.89" y="187.03" width="70.25" height="3.1" transform="translate(-66.65 93.06) rotate(-26.4)"/><rect class="cls-21" x="135.76" y="198.87" width="70.25" height="3.1" transform="translate(-71.3 96.9) rotate(-26.4)"/><rect class="cls-22" x="141.64" y="210.7" width="70.25" height="3.1" transform="translate(-75.95 100.75) rotate(-26.4)"/><rect class="cls-23" x="147.12" y="222.73" width="70.25" height="3.1" transform="translate(-80.73 104.44) rotate(-26.4)"/><rect class="cls-24" x="153.39" y="234.37" width="70.25" height="3.1" transform="translate(-85.25 108.45) rotate(-26.4)"/><rect class="cls-25" x="159.27" y="246.21" width="70.25" height="3.1" transform="translate(-89.9 112.29) rotate(-26.4)"/></g></g><path class="cls-7" d="M49.68,163.68s3.88,9,6.15,11.25,11.24,6.14,11.24,6.14-9,3.89-11.24,6.15-6.15,11.25-6.15,11.25-3.89-9-6.15-11.25-11.25-6.15-11.25-6.15,9-3.88,11.25-6.14S49.68,163.68,49.68,163.68Z"/><path class="cls-7" d="M144.48,106.71s2.82,6.52,4.46,8.16,8.16,4.46,8.16,4.46-6.52,2.82-8.16,4.46-4.46,8.16-4.46,8.16-2.82-6.51-4.46-8.16-8.16-4.46-8.16-4.46,6.51-2.82,8.16-4.46S144.48,106.71,144.48,106.71Z"/><path class="cls-26" d="M97.56,93a1.4,1.4,0,1,1,1.52,1.29A1.41,1.41,0,0,1,97.56,93Zm-9,26.63a2.81,2.81,0,1,0-3-2.56A2.81,2.81,0,0,0,88.54,119.58ZM80.08,86.45A5.62,5.62,0,1,0,74,81.33,5.62,5.62,0,0,0,80.08,86.45Zm48-10.67a2.81,2.81,0,1,0-3-2.56A2.81,2.81,0,0,0,128.07,75.78Z"/><path class="cls-27" d="M162.45,80a14.32,14.32,0,0,1-3,.87,14.26,14.26,0,0,1-3-.87,14.32,14.32,0,0,1,.87,3,14.26,14.26,0,0,1-.87,3,14.26,14.26,0,0,1,3-.87,14.32,14.32,0,0,1,3,.87,14.26,14.26,0,0,1-.87-3A14.32,14.32,0,0,1,162.45,80Z"/><path class="cls-28" d="M97,27.93a19.8,19.8,0,0,1-2.87,3.17A19.55,19.55,0,0,1,90,32.22a19.8,19.8,0,0,1,3.17,2.87,19.55,19.55,0,0,1,1.12,4.12A19.8,19.8,0,0,1,97.16,36a19.55,19.55,0,0,1,4.12-1.12,19.8,19.8,0,0,1-3.17-2.87A19.55,19.55,0,0,1,97,27.93Z"/><path class="cls-28" d="M97,27.93a19.8,19.8,0,0,1-2.87,3.17A19.55,19.55,0,0,1,90,32.22a19.8,19.8,0,0,1,3.17,2.87,19.55,19.55,0,0,1,1.12,4.12A19.8,19.8,0,0,1,97.16,36a19.55,19.55,0,0,1,4.12-1.12,19.8,19.8,0,0,1-3.17-2.87A19.55,19.55,0,0,1,97,27.93Z"/><path class="cls-29" d="M138,107.44a14.33,14.33,0,0,1,3.09-.15,14.46,14.46,0,0,1,2.69,1.53,14.18,14.18,0,0,1-.16-3.09,14.37,14.37,0,0,1,1.54-2.69,14.18,14.18,0,0,1-3.09.16,14.37,14.37,0,0,1-2.69-1.54,14.18,14.18,0,0,1,.16,3.09A14,14,0,0,1,138,107.44Z"/><path class="cls-30" d="M139.62,183.58a1.41,1.41,0,1,1-.3,2A1.41,1.41,0,0,1,139.62,183.58Zm-27.41,6.25a2.81,2.81,0,1,0,.6-3.93A2.8,2.8,0,0,0,112.21,189.83ZM136,165.29a5.62,5.62,0,1,0,1.18-7.86A5.61,5.61,0,0,0,136,165.29Zm34.19,35.31a2.81,2.81,0,1,0,.6-3.93A2.81,2.81,0,0,0,170.21,200.6Z"/></g></g></svg>